<?xml version="1.0" encoding="UTF-8"?>
<svg version="1.1" xmlns="http://www.w3.org/2000/svg" width="500" height="500">
<path d="M0 0 C0.80131348 0.22042969 1.60262695 0.44085938 2.42822266 0.66796875 C21.49652118 6.10065527 40.98293852 14.62352669 55 29 C56.38729703 30.05300859 57.78425184 31.09334369 59.1875 32.125 C74.12939325 43.62827875 84.36831922 60.02955195 92 77 C92.28359375 77.62519531 92.5671875 78.25039062 92.859375 78.89453125 C105.04490486 106.1970156 107.39559109 140.24316675 99 169 C98.75330566 169.86512207 98.50661133 170.73024414 98.25244141 171.62158203 C90.40903133 198.50295615 73.86652161 227.44398735 49 242 C47.72070616 242.94700972 46.45074023 243.90667967 45.1875 244.875 C38.24924755 250.09483983 32.1423067 253.54642317 23.734375 256.0078125 C20.97176077 257.01024681 19.3265241 258.24842151 17 260 C-10.62147501 271.87500071 -41.39082848 271.61104464 -70 264 C-70.68884277 263.81888672 -71.37768555 263.63777344 -72.08740234 263.45117188 C-77.91211974 261.86642614 -82.55797818 259.96156669 -87.24951172 256.15991211 C-89.62878857 254.58335083 -92.16157581 254.24794885 -94.90869141 253.61230469 C-98.22477174 252.64140468 -100.97967264 250.85537691 -103.8125 248.9375 C-104.71198364 248.34304077 -104.71198364 248.34304077 -105.62963867 247.73657227 C-111.39500661 243.86008367 -116.74860903 239.54525339 -122 235 C-122.80308594 234.319375 -123.60617188 233.63875 -124.43359375 232.9375 C-143.76803881 216.24401624 -156.12148009 194.31662432 -163 170 C-163.33668701 168.90872803 -163.33668701 168.90872803 -163.68017578 167.79541016 C-170.40139422 145.73351357 -169.65349906 116.96319091 -163 95 C-162.75862305 94.17693359 -162.51724609 93.35386719 -162.26855469 92.50585938 C-154.25088908 65.82064782 -137.98563097 41.13791928 -115 25 C-114.22785156 24.39929688 -113.45570313 23.79859375 -112.66015625 23.1796875 C-82.0211267 -0.31791411 -37.50974682 -10.41500541 0 0 Z " fill="#FDEBB2" transform="translate(283,94)"/>
<path d="M0 0 C46.86 0 93.72 0 142 0 C142 6.93 142 13.86 142 21 C137.71 21 133.42 21 129 21 C129 50.37 129 79.74 129 110 C121.74 110 114.48 110 107 110 C107 80.63 107 51.26 107 21 C98.75 21 90.5 21 82 21 C82 50.37 82 79.74 82 110 C74.74 110 67.48 110 60 110 C60 80.63 60 51.26 60 21 C51.75 21 43.5 21 35 21 C35 50.37 35 79.74 35 110 C27.74 110 20.48 110 13 110 C13 80.63 13 51.26 13 21 C8.71 21 4.42 21 0 21 C0 14.07 0 7.14 0 0 Z " fill="#010000" transform="translate(179,236)"/>
<path d="M0 0 C2.31636781 2.29019416 3.56632338 5.10157637 5 8 C9.33859696 16.31472886 13.28587082 21.67898888 21 27 C26.98631941 31.57304247 31.28306194 36.78067086 35.69921875 42.8671875 C38.65725159 46.8949334 41.80438824 50.74092142 45.00390625 54.578125 C46.19175665 56.01935249 47.35564294 57.48177764 48.46484375 58.984375 C50.63627275 61.8981136 51.72702675 62.92789386 55.3125 63.875 C56.199375 63.91625 57.08625 63.9575 58 64 C58 63.34 58 62.68 58 62 C57.01 61.67 56.02 61.34 55 61 C55.0721875 60.37996094 55.144375 59.75992188 55.21875 59.12109375 C56.06441862 51.05200562 56.09842611 43.10374993 56 35 C55.01 35 54.02 35 53 35 C51.6883751 29.69502032 52.43298142 25.82679124 53.8125 20.6875 C54.08030273 19.59598633 54.08030273 19.59598633 54.35351562 18.48242188 C54.83046592 16.63488519 55.40791302 14.81392017 56 13 C58.70879335 11.64560332 61.00933268 11.93498549 64 12 C64.4021875 12.9590625 64.4021875 12.9590625 64.8125 13.9375 C65.88667752 16.33131686 65.88667752 16.33131686 69 17 C68.01 20.465 68.01 20.465 67 24 C71.43093198 25.81301758 71.43093198 25.81301758 76 25 C76.33 23.68 76.66 22.36 77 21 C76.67 28.92 76.34 36.84 76 45 C77.505625 42.40125 79.01125 39.8025 80.5625 37.125 C90.96426474 19.35715684 90.96426474 19.35715684 96 16 C102.98531559 15.21133534 102.98531559 15.21133534 106.47265625 17.921875 C109.72506008 21.88307162 111.56428655 25.99710368 113.5625 30.6875 C113.93568359 31.53505859 114.30886719 32.38261719 114.69335938 33.25585938 C117.67403886 40.07254376 120.64623531 46.93870593 123 54 C124.32753993 54.67812975 125.66166141 55.34343924 127 56 C128.62817383 57.72070312 128.62817383 57.72070312 130.20703125 59.78125 C130.79081543 60.53680176 131.37459961 61.29235352 131.97607422 62.07080078 C132.58209473 62.87243652 133.18811523 63.67407227 133.8125 64.5 C134.43398926 65.31065918 135.05547852 66.12131836 135.69580078 66.95654297 C139.95009373 72.53340248 144.10157054 78.16701156 148 84 C147.67 84.66 147.34 85.32 147 86 C147.37866824 88.27200943 148.00592446 90.01150042 149.0625 92.0625 C150 94 150 94 150 97 C144.07490268 96.53190499 138.24426794 95.87898667 132.375 94.9375 C125.30005485 93.9631499 118.32528483 93.81302353 111.1875 93.8125 C109.61331299 93.81141235 109.61331299 93.81141235 108.00732422 93.81030273 C101.61761289 93.85524381 95.343949 94.23485195 89 95 C88.59785261 88.70445003 88.73980186 85.94732688 93 81 C92.92686106 77.92816439 92.52694373 76.56909922 90.4375 74.3125 C89.963125 73.879375 89.48875 73.44625 89 73 C89 72.34 89 71.68 89 71 C90.36125 70.690625 90.36125 70.690625 91.75 70.375 C95.89625647 68.62081457 97.09002437 67.04914834 99 63 C99 56.70105549 96.25740078 50.80624478 94 45 C93.67 45 93.34 45 93 45 C92.34 47.31 91.68 49.62 91 52 C90.67 52 90.34 52 90 52 C90 49.36 90 46.72 90 44 C89.01 45.32 88.02 46.64 87 48 C87.53851968 42.72250715 88.77343836 38.74354436 91 34 C91.66 34 92.32 34 93 34 C93.99 31.03 93.99 31.03 95 28 C95.66 28.33 96.32 28.66 97 29 C97.66 26.36 98.32 23.72 99 21 C101.1875 21 101.1875 21 104 22 C107.82660513 26.65280397 110.60199292 32.1570923 111.4375 38.125 C111.70179553 40.96206895 111.70179553 40.96206895 113.3203125 42.23828125 C116.18983182 45.24793989 117.6142869 49.23293202 119.30664062 52.99414062 C121.07077277 56.72278518 122.2286304 58.39471533 126 60 C125.34100708 59.3512793 125.34100708 59.3512793 124.66870117 58.68945312 C119.19367612 52.92766561 116.31330691 46.79692616 113.3125 39.5 C112.39368879 37.32217258 111.47315235 35.1450721 110.55078125 32.96875 C109.90616943 31.43734375 109.90616943 31.43734375 109.24853516 29.875 C107.63912347 26.16901018 105.85861646 22.58665098 104 19 C100.75393319 18.41338532 100.75393319 18.41338532 97 19 C92.35982711 23.13580627 89.36802423 28.43010023 86.125 33.6875 C85.71910645 34.34113525 85.31321289 34.99477051 84.89501953 35.66821289 C82.82696525 39.13435711 82 40.87013644 82 45 C81.34 45.99 80.68 46.98 80 48 C79.83300768 51.12521833 79.83300768 51.12521833 80 54 C80.78375 54.268125 81.5675 54.53625 82.375 54.8125 C85 56 85 56 87 59 C87 59.99 87 60.98 87 62 C86.01 62.33 85.02 62.66 84 63 C83.34 62.67 82.68 62.34 82 62 C80.6696875 62.9590625 80.6696875 62.9590625 79.3125 63.9375 C76.31209667 65.80567566 74.46969429 66.70259763 71 67 C70.67 66.67 70.34 66.34 70 66 C69.67 66.66 69.34 67.32 69 68 C68.30132812 67.90460938 67.60265625 67.80921875 66.8828125 67.7109375 C65.97273437 67.60007812 65.06265625 67.48921875 64.125 67.375 C62.76761719 67.20097656 62.76761719 67.20097656 61.3828125 67.0234375 C60.59648437 67.01570313 59.81015625 67.00796875 59 67 C58.34 67.66 57.68 68.32 57 69 C57 69.66 57 70.32 57 71 C57.99 71 58.98 71 60 71 C60.39703125 71.87914062 60.7940625 72.75828125 61.203125 73.6640625 C63.05864402 77.10887391 65.07029218 79.53717277 67.75 82.375 C68.62914062 83.32117188 69.50828125 84.26734375 70.4140625 85.2421875 C71.69410156 86.60730469 71.69410156 86.60730469 73 88 C74.38405481 89.49164918 75.76037378 90.9905563 77.125 92.5 C77.68445313 93.1084375 78.24390625 93.716875 78.8203125 94.34375 C80 96 80 96 80 99 C73.11039434 98.36980997 66.5497865 97.10978445 59.8125 95.5625 C40.22544946 90.03540922 40.22544946 90.03540922 21 92 C13.22160029 92.92757748 6.70989817 91.52121644 -0.53808594 88.86010742 C-5.70364109 86.9904448 -10.52591185 86.14168228 -16 86 C-14.68 84.02 -13.36 82.04 -12 80 C-12.7425 79.731875 -13.485 79.46375 -14.25 79.1875 C-17 78 -17 78 -18.75 76.3125 C-21.8599572 74.4983583 -24.03751039 74.83380549 -27.5390625 75.33984375 C-31.76340215 76.47303962 -35.33957302 78.65490375 -39 81 C-37.87314977 77.61944932 -36.94615375 76.8920618 -34.25 74.6875 C-30.71708237 71.70104085 -27.84239057 68.64181292 -25 65 C-26.86321004 62.70897487 -26.86321004 62.70897487 -29.8125 62.75 C-32.96313815 62.99710887 -35.15915182 63.66313027 -38 65 C-38 64.34 -38 63.68 -38 63 C-34.23879503 59.69849786 -30.70996985 57 -25.625 57 C-23 58 -23 58 -20 60 C-20 60.66 -20 61.32 -20 62 C-19.56429687 61.62746094 -19.12859375 61.25492188 -18.6796875 60.87109375 C-13.75471698 56.95883362 -13.75471698 56.95883362 -9.5625 57.1875 C-8.716875 57.455625 -7.87125 57.72375 -7 58 C-3.24217974 50.84031452 -3.24217974 50.84031452 -3 43 C-4.15554113 40.84574117 -5.41724668 38.8417548 -6.80859375 36.83203125 C-8 35 -8 35 -9 32 C-11.42080258 38.9165788 -13.29977612 45.87352969 -15 53 C-16.45499738 48.63500785 -15.35029642 45.02119001 -14.58984375 40.54296875 C-14.2204275 38.32402479 -13.89319146 36.0971868 -13.62890625 33.86328125 C-12.77684546 27.1434204 -10.85383057 22.3073612 -7.3984375 16.4921875 C-5.6428006 13.36342677 -4.77468462 10.48608081 -4 7 C-3.01 7 -2.02 7 -1 7 C0.36279297 8.68066406 0.36279297 8.68066406 1.7421875 11.015625 C2.25136719 11.85480469 2.76054687 12.69398438 3.28515625 13.55859375 C3.80980469 14.44675781 4.33445312 15.33492187 4.875 16.25 C10.01092717 25.43485666 10.01092717 25.43485666 18.65234375 30.93359375 C21.82634191 32.37535997 22.27512375 33.87321597 23.5625 37.0625 C23.96984375 38.03960937 24.3771875 39.01671875 24.796875 40.0234375 C25.39242187 41.49683594 25.39242187 41.49683594 26 43 C26.76429331 44.7320673 27.53445917 46.46156435 28.3125 48.1875 C28.87548801 49.45811722 29.43818846 50.72886216 30 52 C30.33 52 30.66 52 31 52 C30.01 50.02 29.02 48.04 28 46 C28.66 45.67 29.32 45.34 30 45 C30 39.83818287 27.30292247 36.80933307 24 33 C21.06323886 30.67725219 18.02997542 28.53951487 14.97265625 26.37890625 C9.23508414 21.78734065 5.97649823 16.56569482 2.6875 10.125 C2.32849609 9.43664062 1.96949219 8.74828125 1.59960938 8.0390625 C0.72653676 6.36276308 -0.1376755 4.68185374 -1 3 C-6.87060888 3.22719957 -6.87060888 3.22719957 -11.7109375 6.25390625 C-12.46632812 7.16011719 -13.22171875 8.06632813 -14 9 C-14.75539062 9.79277344 -15.51078125 10.58554688 -16.2890625 11.40234375 C-21.54832319 17.11013671 -26.45600686 22.96693573 -31.15673828 29.14038086 C-33.89086014 32.70562237 -36.75533713 35.88931783 -40 39 C-39.34 37.35 -38.68 35.7 -38 34 C-42.94457 37.7084275 -45.88468183 41.4493466 -49 46.75 C-49.86096375 48.17249008 -50.72293865 49.59436866 -51.5859375 51.015625 C-51.99682617 51.69818359 -52.40771484 52.38074219 -52.83105469 53.08398438 C-55.09958156 56.80232166 -57.54305755 60.40447446 -60 64 C-59.32453125 63.18015625 -58.6490625 62.3603125 -57.953125 61.515625 C-57.05218992 60.42699511 -56.15114228 59.33845837 -55.25 58.25 C-54.8065625 57.71117187 -54.363125 57.17234375 -53.90625 56.6171875 C-51.39953226 53.59438081 -48.82940784 50.72363559 -46 48 C-45.34 48.33 -44.68 48.66 -44 49 C-45.18538641 51.56833721 -46.5017881 53.7231652 -48.125 56.0625 C-50.26901773 58.84064436 -50.26901773 58.84064436 -50 62 C-51.5 64.5 -51.5 64.5 -53 67 C-53 67.99 -53 68.98 -53 70 C-54.875 72.1875 -54.875 72.1875 -57 74 C-57.66 74 -58.32 74 -59 74 C-61.25257631 74.94462878 -62.80079353 75.79249326 -64.5 77.5625 C-66.27460185 79.26316011 -67.61006256 79.58794182 -70 80 C-70 79.01 -70 78.02 -70 77 C-71.65 79.31 -73.3 81.62 -75 84 C-75 79.87531323 -72.89306696 77.52220471 -70.625 74.25 C-69.70168149 72.89202323 -68.77850842 71.53394757 -67.85546875 70.17578125 C-67.38028809 69.48178223 -66.90510742 68.7877832 -66.41552734 68.07275391 C-64.23278325 64.87656602 -62.08468081 61.65763658 -59.9375 58.4375 C-59.52540283 57.82366455 -59.11330566 57.2098291 -58.6887207 56.57739258 C-56.60923323 53.46898141 -54.57723188 50.34152444 -52.6171875 47.15625 C-48.71081743 40.82891529 -45.09135232 35.42381017 -39 31 C-31.29223125 24.92466262 -25.26101355 17.49482131 -19 10 C-17.67274507 8.41156789 -16.34068811 6.82711053 -15 5.25 C-14.505 4.65703125 -14.01 4.0640625 -13.5 3.453125 C-9.81616109 -0.11559394 -4.98076926 -1.42021935 0 0 Z " fill="#050504" transform="translate(213,134)"/>
<path d="M0 0 C2.1875 0 2.1875 0 5 1 C8.82660513 5.65280397 11.60199292 11.1570923 12.4375 17.125 C12.70242275 19.96467479 12.70242275 19.96467479 14.33203125 21.25 C16.71340151 23.74848683 17.84626281 26.76819044 19.25 29.875 C21.94030698 35.58816478 24.36514866 39.01007888 30 42 C30.33 41.01 30.66 40.02 31 39 C33.25350243 41.87226988 35.50215866 44.74829829 37.75 47.625 C38.38421875 48.43324219 39.0184375 49.24148437 39.671875 50.07421875 C42.95869897 54.28546196 46.11743076 58.50144497 49 63 C48.67 63.66 48.34 64.32 48 65 C48.37866824 67.27200943 49.00592446 69.01150042 50.0625 71.0625 C51 73 51 73 51 76 C45.07490268 75.53190499 39.24426794 74.87898667 33.375 73.9375 C26.30005485 72.9631499 19.32528483 72.81302353 12.1875 72.8125 C10.61331299 72.81141235 10.61331299 72.81141235 9.00732422 72.81030273 C2.61761289 72.85524381 -3.656051 73.23485195 -10 74 C-10.40214739 67.70445003 -10.26019814 64.94732688 -6 60 C-6.07313894 56.92816439 -6.47305627 55.56909922 -8.5625 53.3125 C-9.036875 52.879375 -9.51125 52.44625 -10 52 C-10 51.34 -10 50.68 -10 50 C-9.0925 49.79375 -8.185 49.5875 -7.25 49.375 C-3.10374353 47.62081457 -1.90997563 46.04914834 0 42 C0 35.70105549 -2.74259922 29.80624478 -5 24 C-5.33 24 -5.66 24 -6 24 C-6.66 26.31 -7.32 28.62 -8 31 C-8.33 31 -8.66 31 -9 31 C-9 28.36 -9 25.72 -9 23 C-9.99 24.32 -10.98 25.64 -12 27 C-11.46148032 21.72250715 -10.22656164 17.74354436 -8 13 C-7.34 13 -6.68 13 -6 13 C-5.34 11.02 -4.68 9.04 -4 7 C-3.34 7.33 -2.68 7.66 -2 8 C-1.34 5.36 -0.68 2.72 0 0 Z " fill="#040403" transform="translate(312,155)"/>
<path d="M0 0 C2.31636781 2.29019416 3.56632338 5.10157637 5 8 C9.34321563 16.32358034 13.29525109 21.65981196 21 27 C26.27116418 31.17460813 31.97685554 35.8651671 35 42 C34.83984375 44.17578125 34.83984375 44.17578125 34 46 C32.515 46.495 32.515 46.495 31 47 C30.01 44.525 30.01 44.525 29 42 C29.66 42 30.32 42 31 42 C26.51314435 35.31711289 21.48423871 30.80146851 14.8671875 26.23828125 C9.13830215 21.76600427 5.93663537 16.48763321 2.6875 10.125 C2.32849609 9.43664062 1.96949219 8.74828125 1.59960938 8.0390625 C0.72653676 6.36276308 -0.1376755 4.68185374 -1 3 C-6.87060888 3.22719957 -6.87060888 3.22719957 -11.7109375 6.25390625 C-12.46632812 7.16011719 -13.22171875 8.06632813 -14 9 C-14.75539062 9.79277344 -15.51078125 10.58554688 -16.2890625 11.40234375 C-21.54832319 17.11013671 -26.45600686 22.96693573 -31.15673828 29.14038086 C-33.89086014 32.70562237 -36.75533713 35.88931783 -40 39 C-39.34 37.35 -38.68 35.7 -38 34 C-42.94457 37.7084275 -45.88468183 41.4493466 -49 46.75 C-49.86096375 48.17249008 -50.72293865 49.59436866 -51.5859375 51.015625 C-51.99682617 51.69818359 -52.40771484 52.38074219 -52.83105469 53.08398438 C-55.09958156 56.80232166 -57.54305755 60.40447446 -60 64 C-59.32453125 63.18015625 -58.6490625 62.3603125 -57.953125 61.515625 C-57.05218992 60.42699511 -56.15114228 59.33845837 -55.25 58.25 C-54.8065625 57.71117187 -54.363125 57.17234375 -53.90625 56.6171875 C-51.39953226 53.59438081 -48.82940784 50.72363559 -46 48 C-45.34 48.33 -44.68 48.66 -44 49 C-45.18538641 51.56833721 -46.5017881 53.7231652 -48.125 56.0625 C-50.26901773 58.84064436 -50.26901773 58.84064436 -50 62 C-51.5 64.5 -51.5 64.5 -53 67 C-53 67.99 -53 68.98 -53 70 C-54.875 72.1875 -54.875 72.1875 -57 74 C-57.66 74 -58.32 74 -59 74 C-61.25257631 74.94462878 -62.80079353 75.79249326 -64.5 77.5625 C-66.27460185 79.26316011 -67.61006256 79.58794182 -70 80 C-70 79.01 -70 78.02 -70 77 C-71.65 79.31 -73.3 81.62 -75 84 C-75 79.87531323 -72.89306696 77.52220471 -70.625 74.25 C-69.70168149 72.89202323 -68.77850842 71.53394757 -67.85546875 70.17578125 C-67.38028809 69.48178223 -66.90510742 68.7877832 -66.41552734 68.07275391 C-64.23278325 64.87656602 -62.08468081 61.65763658 -59.9375 58.4375 C-59.52540283 57.82366455 -59.11330566 57.2098291 -58.6887207 56.57739258 C-56.60923323 53.46898141 -54.57723188 50.34152444 -52.6171875 47.15625 C-48.71081743 40.82891529 -45.09135232 35.42381017 -39 31 C-31.29223125 24.92466262 -25.26101355 17.49482131 -19 10 C-17.67274507 8.41156789 -16.34068811 6.82711053 -15 5.25 C-14.505 4.65703125 -14.01 4.0640625 -13.5 3.453125 C-9.81616109 -0.11559394 -4.98076926 -1.42021935 0 0 Z " fill="#191711" transform="translate(213,134)"/>
<path d="M0 0 C0.33 0.66 0.66 1.32 1 2 C-8.89988191 16.65674006 -19.43627837 31.8895288 -35 41 C-36.27929384 41.94700972 -37.54925977 42.90667967 -38.8125 43.875 C-45.75075245 49.09483983 -51.8576933 52.54642317 -60.265625 55.0078125 C-63.02823923 56.01024681 -64.6734759 57.24842151 -67 59 C-94.62147501 70.87500071 -125.39082848 70.61104464 -154 63 C-154.68884277 62.81888672 -155.37768555 62.63777344 -156.08740234 62.45117188 C-161.95999545 60.85340048 -166.58955374 58.91116058 -171.33203125 55.10546875 C-174.31036583 53.1315374 -177.52528133 52.67055974 -181 52 C-181 51.67 -181 51.34 -181 51 C-172.25628141 50.70854271 -172.25628141 50.70854271 -169 53 C-168.57090332 53.47856445 -168.14180664 53.95712891 -167.69970703 54.45019531 C-155.78175091 65.31707056 -127.48610837 67.17186511 -112.078125 66.46484375 C-103.24628032 65.78851582 -94.61002978 64.01994274 -86 62 C-84.86304688 61.73832031 -83.72609375 61.47664063 -82.5546875 61.20703125 C-77.57858869 59.9526108 -72.99253716 58.27335384 -68.35546875 56.08203125 C-65.73365426 54.87764881 -63.06421771 53.85730955 -60.375 52.8125 C-47.31214516 47.37103053 -35.17991024 39.41016975 -25.3203125 29.234375 C-23 27 -23 27 -21 27 C-20.75894531 26.43925781 -20.51789063 25.87851562 -20.26953125 25.30078125 C-18.7382177 22.52556993 -16.85403695 20.49968649 -14.6875 18.1875 C-11.92642163 15.1911529 -9.35452228 12.24441 -7.0625 8.875 C-6.381875 7.92625 -5.70125 6.9775 -5 6 C-4.34 6 -3.68 6 -3 6 C-2.690625 5.195625 -2.38125 4.39125 -2.0625 3.5625 C-1 1 -1 1 0 0 Z " fill="#FBFAF5" transform="translate(367,295)"/>
<path d="M0 0 C0.99 0.33 1.98 0.66 3 1 C1.81461359 3.56833721 0.4982119 5.7231652 -1.125 8.0625 C-3.26901773 10.84064436 -3.26901773 10.84064436 -3 14 C-4.5 16.5 -4.5 16.5 -6 19 C-6 19.99 -6 20.98 -6 22 C-7.875 24.1875 -7.875 24.1875 -10 26 C-10.66 26 -11.32 26 -12 26 C-14.25257631 26.94462878 -15.80079353 27.79249326 -17.5 29.5625 C-19.27460185 31.26316011 -20.61006256 31.58794182 -23 32 C-23 31.01 -23 30.02 -23 29 C-25.475 32.465 -25.475 32.465 -28 36 C-28 31.91690436 -26.06133497 29.39798798 -23.9375 26.0625 C-23.56689453 25.44181641 -23.19628906 24.82113281 -22.81445312 24.18164062 C-20.28626513 20.19177756 -18.0887662 18.30821393 -13.79077148 16.12866211 C-10.29342596 13.92440466 -8.02104051 10.51365855 -5.5625 7.25 C-5.02173828 6.55261719 -4.48097656 5.85523438 -3.92382812 5.13671875 C-2.60504997 3.43281069 -1.30097324 1.71754102 0 0 Z " fill="#25221A" transform="translate(166,182)"/>
<path d="M0 0 C3.48891338 0.91376303 4.85872863 2.78892128 7.1328125 5.55859375 C8.87054652 8.69885521 10.28946902 11.94616446 11.6953125 15.24609375 C12.25508789 16.51743164 12.25508789 16.51743164 12.82617188 17.81445312 C15.80685136 24.63113751 18.77904781 31.49729968 21.1328125 38.55859375 C23.06611853 39.6502565 23.06611853 39.6502565 25.1328125 40.55859375 C27.1328125 42.55859375 27.1328125 42.55859375 27.2578125 45.18359375 C27.2165625 45.96734375 27.1753125 46.75109375 27.1328125 47.55859375 C17.12890402 42.55663951 12.99197664 27.11636771 8.9453125 17.62109375 C8.07956821 15.58997349 7.21119596 13.55997079 6.33984375 11.53125 C5.9631958 10.64703369 5.58654785 9.76281738 5.19848633 8.85180664 C4.11334827 6.36430912 4.11334827 6.36430912 2.1328125 3.55859375 C-1.19532074 2.72325493 -1.19532074 2.72325493 -4.8671875 3.55859375 C-9.50736039 7.69440002 -12.49916327 12.98869398 -15.7421875 18.24609375 C-16.14808105 18.899729 -16.55397461 19.55336426 -16.97216797 20.22680664 C-19.04022225 23.69295086 -19.8671875 25.42873019 -19.8671875 29.55859375 C-21.3671875 31.30859375 -21.3671875 31.30859375 -22.8671875 32.55859375 C-23.8571875 32.22859375 -24.8471875 31.89859375 -25.8671875 31.55859375 C-24.34451467 27.43887487 -22.36504913 23.66872719 -20.1796875 19.87109375 C-19.8288208 19.26040039 -19.4779541 18.64970703 -19.11645508 18.02050781 C-8.94294863 0.543591 -8.94294863 0.543591 0 0 Z " fill="#181711" transform="translate(314.8671875,149.44140625)"/>
<path d="M0 0 C0.495 0.99 0.495 0.99 1 2 C-8.89988191 16.65674006 -19.43627837 31.8895288 -35 41 C-36.27929384 41.94700972 -37.54925977 42.90667967 -38.8125 43.875 C-50.65183597 52.7935205 -50.65183597 52.7935205 -57 52 C-54.37185174 50.24790116 -51.69295354 48.66162797 -48.96044922 47.08105469 C-40.26665957 42.00985784 -32.36516405 36.50515474 -25.3203125 29.234375 C-23 27 -23 27 -21 27 C-20.75894531 26.43925781 -20.51789063 25.87851562 -20.26953125 25.30078125 C-18.7382177 22.52556993 -16.85403695 20.49968649 -14.6875 18.1875 C-11.92642163 15.1911529 -9.35452228 12.24441 -7.0625 8.875 C-6.381875 7.92625 -5.70125 6.9775 -5 6 C-4.34 6 -3.68 6 -3 6 C-2.690625 5.195625 -2.38125 4.39125 -2.0625 3.5625 C-1 1 -1 1 0 0 Z " fill="#F7F5F1" transform="translate(367,295)"/>
<path d="M0 0 C3.75271729 1.25090576 3.93669661 2.27991582 5.75 5.6875 C9.09191389 11.46810781 12.91843181 14.74269742 18.234375 18.63671875 C23.49055388 22.56121473 27.3724141 26.52305659 31 32 C30.67 32.66 30.34 33.32 30 34 C30 34.99 30 35.98 30 37 C29.34 37 28.68 37 28 37 C29.32 38.98 30.64 40.96 32 43 C31.67 43.66 31.34 44.32 31 45 C26.28493635 40.28493635 24.34634611 35.26438099 22.11328125 29.0234375 C20.803705 25.38819955 20.803705 25.38819955 19 22 C17.26949664 21.28167785 15.53754227 20.56625367 13.79296875 19.8828125 C7.53509047 16.80159138 3.29520188 7.81171051 0 2 C0 1.34 0 0.68 0 0 Z " fill="#E3D29F" transform="translate(214,144)"/>
<path d="M0 0 C1.65 0 3.3 0 5 0 C4.41196203 3.02419525 3.77321882 6.01758453 3 9 C3.99 9.66 4.98 10.32 6 11 C5.34 13.31 4.68 15.62 4 18 C3.34 18 2.68 18 2 18 C2 18.99 2 19.98 2 21 C0.35 20.67 -1.3 20.34 -3 20 C-4.43027825 15.36733774 -3.39403523 11.6905884 -2.0625 7.1875 C-1.86720703 6.49462891 -1.67191406 5.80175781 -1.47070312 5.08789062 C-0.99035554 3.38910039 -0.49651979 1.69413405 0 0 Z " fill="#E9D7A2" transform="translate(276,175)"/>
<path d="M0 0 C1.60577252 4.01443129 0.36580696 7.04634827 -1 11 C-3 14 -3 14 -4.8125 14.4375 C-7.82434177 15.2119736 -9.61561324 17.05484238 -12 19 C-12.66 19 -13.32 19 -14 19 C-15.36161311 19.96113866 -16.69855198 20.95884159 -18 22 C-16.30812349 17.95334799 -13.5163294 14.84965236 -10.6875 11.5625 C-10.21376953 11.00240234 -9.74003906 10.44230469 -9.25195312 9.86523438 C-6.3089222 6.41492316 -3.24779379 3.16497209 0 0 Z " fill="#1A1812" transform="translate(200,144)"/>
<path d="M0 0 C2.31 0 4.62 0 7 0 C10.24768364 5.44226352 12.88828963 11.01467071 15.4375 16.8125 C16.23316486 18.59429088 17.03002608 20.37554805 17.828125 22.15625 C18.20517578 22.99800781 18.58222656 23.83976562 18.97070312 24.70703125 C22.28922869 32.09972387 25.44059234 38.05272669 31 44 C26.48663209 42.62091536 24.57446739 40.9421532 22 37 C17 27.05747126 17 27.05747126 17 24 C16.01 23.67 15.02 23.34 14 23 C13.4453125 21.25 13.4453125 21.25 13.125 19 C11.97776482 13.15189873 9.98405297 7.30304503 5.1171875 3.546875 C3.0204424 2.29955258 3.0204424 2.29955258 0 1 C0 0.67 0 0.34 0 0 Z " fill="#D6C695" transform="translate(310,152)"/>
<path d="M0 0 C0.66 0.33 1.32 0.66 2 1 C1.43152344 1.72703125 0.86304688 2.4540625 0.27734375 3.203125 C-9.67980775 15.02048392 -9.67980775 15.02048392 -14 29 C-15.5 30.75 -15.5 30.75 -17 32 C-17.99 31.67 -18.98 31.34 -20 31 C-18.47732717 26.88028112 -16.49786163 23.11013344 -14.3125 19.3125 C-13.9616333 18.70180664 -13.6107666 18.09111328 -13.24926758 17.46191406 C-5.0406333 3.3604222 -5.0406333 3.3604222 0 0 Z " fill="#1E1B14" transform="translate(309,150)"/>
<path d="M0 0 C0.66 0.33 1.32 0.66 2 1 C0.61240749 2.61130023 -0.78545623 4.21375841 -2.1875 5.8125 C-2.96480469 6.70582031 -3.74210937 7.59914063 -4.54296875 8.51953125 C-6.91887643 10.9181026 -9.06883682 12.37001022 -12 14 C-13.28524293 14.93891999 -14.55682214 15.89689303 -15.8125 16.875 C-27.65183597 25.7935205 -27.65183597 25.7935205 -34 25 C-31.37185174 23.24790116 -28.69295354 21.66162797 -25.96044922 20.08105469 C-16.2600252 14.42267535 -7.90176788 8.04236873 0 0 Z " fill="#F2F0E9" transform="translate(344,322)"/>
<path d="M0 0 C0.33 0 0.66 0 1 0 C0.49656013 7.02673515 -0.04187968 14.01940909 -1 21 C-1.99 20.67 -2.98 20.34 -4 20 C-3.40049704 16.31733897 -2.75241109 12.65456815 -2 9 C-4.31 8.01 -6.62 7.02 -9 6 C-8.67 4.68 -8.34 3.36 -8 2 C-6.865625 1.855625 -5.73125 1.71125 -4.5625 1.5625 C-1.19222799 1.38828522 -1.19222799 1.38828522 0 0 Z " fill="#EBDAA4" transform="translate(287,163)"/>
<path d="M0 0 C0.66 0.33 1.32 0.66 2 1 C1.75 3.375 1.75 3.375 1 6 C0.42636719 6.27585938 -0.14726562 6.55171875 -0.73828125 6.8359375 C-3.83426398 8.42937939 -5.63352438 10.6513711 -7.9375 13.25 C-8.81277344 14.23484375 -9.68804687 15.2196875 -10.58984375 16.234375 C-15.55172859 21.91574827 -15.55172859 21.91574827 -20 28 C-20.33 27.01 -20.66 26.02 -21 25 C-19.28142728 22.69237585 -17.55401842 20.62009505 -15.625 18.5 C-14.51715223 17.24834822 -13.41039399 15.99573129 -12.3046875 14.7421875 C-11.7487793 14.11666992 -11.19287109 13.49115234 -10.62011719 12.84667969 C-6.95516898 8.66921311 -3.49256026 4.32160235 0 0 Z " fill="#CCBD8E" transform="translate(201,139)"/>
<path d="M0 0 C3.3326532 1.42095543 5.23606522 3.1165874 7.5625 5.875 C8.14128906 6.55304688 8.72007812 7.23109375 9.31640625 7.9296875 C14.01659957 13.70950759 14.01659957 13.70950759 13.875 16.1875 C13.441875 17.0846875 13.441875 17.0846875 13 18 C12.01 18.33 11.02 18.66 10 19 C9.34 17.35 8.68 15.7 8 14 C8.66 14 9.32 14 10 14 C8.9015258 12.53737408 7.7959964 11.08004497 6.6875 9.625 C6.07261719 8.81289062 5.45773438 8.00078125 4.82421875 7.1640625 C3.00519317 4.80220611 3.00519317 4.80220611 0 3 C0 2.01 0 1.02 0 0 Z " fill="#242119" transform="translate(234,162)"/>
<path d="M0 0 C0.33 0.99 0.66 1.98 1 3 C2.66072849 3.68132451 4.327767 4.34742127 6 5 C8 8 8 8 8 11 C7.01 11.33 6.02 11.66 5 12 C2.5 9.9375 2.5 9.9375 0 7 C-0.3125 3.1875 -0.3125 3.1875 0 0 Z " fill="#1F1D15" transform="translate(292,185)"/>
<path d="M0 0 C0 5.31569176 -4.02378531 8.97616508 -7.5625 12.6875 C-8.366875 13.450625 -9.17125 14.21375 -10 15 C-10.763125 15.763125 -11.52625 16.52625 -12.3125 17.3125 C-12.869375 17.869375 -13.42625 18.42625 -14 19 C-12.52659854 14.89118458 -10.52274719 11.4543613 -8.125 7.8125 C-7.44695312 6.76707031 -6.76890625 5.72164062 -6.0703125 4.64453125 C-4.10284469 2.13136953 -2.94666859 1.07692148 0 0 Z " fill="#554E3B" transform="translate(151,199)"/>
<path d="M0 0 C2.6875 -0.3125 2.6875 -0.3125 6 0 C9.15137871 2.57840076 11.62552609 5.12648262 13 9 C13 10.32 13 11.64 13 13 C12.34 13 11.68 13 11 13 C10.72027344 12.28972656 10.44054687 11.57945312 10.15234375 10.84765625 C8.930687 8.04688049 7.73393565 5.51935699 6 3 C2.33957308 1.69857084 2.33957308 1.69857084 -1 2 C-0.67 1.34 -0.34 0.68 0 0 Z " fill="#12100C" transform="translate(311,150)"/>
<path d="M0 0 C1.875 1.5 1.875 1.5 3 3 C2.01 3.66 1.02 4.32 0 5 C0 4.34 0 3.68 0 3 C-0.763125 3.515625 -1.52625 4.03125 -2.3125 4.5625 C-3.199375 5.036875 -4.08625 5.51125 -5 6 C-5.99 5.67 -6.98 5.34 -8 5 C-8.33 4.01 -8.66 3.02 -9 2 C-5.53076119 -0.31282587 -4.07794425 -0.42478586 0 0 Z " fill="#383327" transform="translate(278,200)"/>
<path d="M0 0 C0.99 0.33 1.98 0.66 3 1 C0.82367811 5.89672424 -1.88229672 9.98947371 -7 12 C-6.67566492 6.64847115 -3.50295176 3.71719957 0 0 Z " fill="#6E664D" transform="translate(166,182)"/>
<path d="M0 0 C2.31 0 4.62 0 7 0 C10.08764726 5.18283647 12.63483137 10.45191827 15 16 C14.34 16.33 13.68 16.66 13 17 C12.64808594 16.18015625 12.29617188 15.3603125 11.93359375 14.515625 C8.87802856 7.84603624 6.93307697 3.77323079 0 1 C0 0.67 0 0.34 0 0 Z " fill="#C2B487" transform="translate(310,152)"/>
<path d="M0 0 C0.33 0.66 0.66 1.32 1 2 C-0.59856666 4.12942275 -2.20347458 6.25350334 -3.8125 8.375 C-4.26431641 8.97828125 -4.71613281 9.5815625 -5.18164062 10.203125 C-7.31213278 13.00231177 -9.04813965 15.0320931 -12 17 C-10.31853173 13.38309168 -8.20107633 10.13434498 -6 6.8125 C-5.29875 5.74644531 -4.5975 4.68039063 -3.875 3.58203125 C-2 1 -2 1 0 0 Z " fill="#DECE9B" transform="translate(164,182)"/>
<path d="M0 0 C0.99 0.33 1.98 0.66 3 1 C3 1.66 3 2.32 3 3 C1.9275 3.4125 0.855 3.825 -0.25 4.25 C-3.52265074 5.63739149 -5.65517162 7.27999908 -8 10 C-8 8.68 -8 7.36 -8 6 C-5.46277769 3.62824871 -3.11705122 1.55852561 0 0 Z " fill="#222018" transform="translate(205,134)"/>
<path d="M0 0 C0.99 0 1.98 0 3 0 C3.33 0.99 3.66 1.98 4 3 C-0.75 7 -0.75 7 -3 7 C-4.36161311 7.96113866 -5.69855198 8.95884159 -7 10 C-5.32127275 6.03209924 -2.91722926 3.13068506 0 0 Z " fill="#4F4937" transform="translate(189,156)"/>
<path d="M0 0 C3 0 3 0 6 1 C5.34 2.65 4.68 4.3 4 6 C3.401875 5.79375 2.80375 5.5875 2.1875 5.375 C-0.28450846 4.69328085 -0.28450846 4.69328085 -3 7 C-3 3.47190093 -2.35723489 2.53184488 0 0 Z " fill="#454030" transform="translate(158,192)"/>
<path d="M0 0 C0.99 0 1.98 0 3 0 C3 0.66 3 1.32 3 2 C3.61875 2.28875 4.2375 2.5775 4.875 2.875 C7 4 7 4 9 6 C9.125 8.625 9.125 8.625 9 11 C6.69162334 9.84581167 5.61393274 8.5774057 3.9375 6.625 C3.41027344 6.01914063 2.88304687 5.41328125 2.33984375 4.7890625 C1 3 1 3 0 0 Z " fill="#26241B" transform="translate(333,186)"/>
<path d="M0 0 C3.79007726 1.26335909 4.18073712 2.53259742 6.125 5.9375 C6.64320313 6.83339844 7.16140625 7.72929687 7.6953125 8.65234375 C8.49208952 10.08606528 9.26645913 11.53291826 10 13 C9.34 13.66 8.68 14.32 8 15 C6.66121428 12.8782637 5.32884524 10.75294812 4 8.625 C3.6184375 8.02171875 3.236875 7.4184375 2.84375 6.796875 C0 2.2265625 0 2.2265625 0 0 Z " fill="#E0D09C" transform="translate(214,144)"/>
<path d="M0 0 C0.99 0.33 1.98 0.66 3 1 C1.94124926 4.40312738 0.99097846 7.01353231 -1 10 C-1.99 9.67 -2.98 9.34 -4 9 C-3.01 7.35 -2.02 5.7 -1 4 C-1.66 3.67 -2.32 3.34 -3 3 C-2.01 2.01 -1.02 1.02 0 0 Z " fill="#5C5640" transform="translate(198,148)"/>
<path d="M0 0 C1.65 0 3.3 0 5 0 C4.34 1.65 3.68 3.3 3 5 C1.33333333 5 -0.33333333 5 -2 5 C-1.34 3.35 -0.68 1.7 0 0 Z " fill="#3A3528" transform="translate(291,176)"/>
<path d="M0 0 C0 4.29525524 -2.23382207 5.83865379 -5 9 C-5.66 9.99 -6.32 10.98 -7 12 C-7.33 11.01 -7.66 10.02 -8 9 C-5.36 6.03 -2.72 3.06 0 0 Z " fill="#E6D5A0" transform="translate(188,155)"/>
<path d="M0 0 C-0.33 0.99 -0.66 1.98 -1 3 C-3.5625 4.1875 -3.5625 4.1875 -6 5 C-6.33 4.01 -6.66 3.02 -7 2 C-4 0 -4 0 0 0 Z " fill="#E0D09C" transform="translate(276,200)"/>
<path d="M0 0 C1.14926266 0.95421808 2.29430541 1.91352045 3.4375 2.875 C4.07558594 3.40867188 4.71367187 3.94234375 5.37109375 4.4921875 C7 6 7 6 8 8 C4.67689517 6.83242263 2.16638868 5.85051143 0 3 C0 2.01 0 1.02 0 0 Z " fill="#EFDDA7" transform="translate(333,188)"/>
<path d="M0 0 C2 3 4 6 6 9 C5.01 9 4.02 9 3 9 C0.75 6.1875 0.75 6.1875 -1 3 C-0.67 2.01 -0.34 1.02 0 0 Z " fill="#484332" transform="translate(239,180)"/>
<path d="M0 0 C0.33 0 0.66 0 1 0 C1.07654536 4.51617599 1.10228696 8.59085217 0 13 C-0.33 13 -0.66 13 -1 13 C-1.33 10.03 -1.66 7.06 -2 4 C-1.34 4 -0.68 4 0 4 C0 2.68 0 1.36 0 0 Z " fill="#0B0B08" transform="translate(289,155)"/>
<path d="M0 0 C-1 2 -2 4 -3 6 C-3.66 6 -4.32 6 -5 6 C-5.33 5.01 -5.66 4.02 -6 3 C-3.375 0 -3.375 0 0 0 Z " fill="#070705" transform="translate(197,152)"/>
<path d="M0 0 C0.99 0.33 1.98 0.66 3 1 C2.1875 2.9375 2.1875 2.9375 1 5 C0.01 5.33 -0.98 5.66 -2 6 C-1.125 1.125 -1.125 1.125 0 0 Z " fill="#978C69" transform="translate(166,182)"/>
<path d="M0 0 C0 4.38968456 -2.12805101 5.76905739 -5 9 C-5.66 8.34 -6.32 7.68 -7 7 C-4.69 4.69 -2.38 2.38 0 0 Z " fill="#D6C695" transform="translate(195,147)"/>
<path d="M0 0 C3 1 3 1 3 1 Z " fill="#FFFFFF" transform="translate(258,384)"/>
</svg>
