<?xml version="1.0" standalone="no"?>
<!DOCTYPE svg PUBLIC "-//W3C//DTD SVG 20010904//EN"
 "http://www.w3.org/TR/2001/REC-SVG-20010904/DTD/svg10.dtd">
<svg version="1.0" xmlns="http://www.w3.org/2000/svg"
 width="500.000000pt" height="500.000000pt" viewBox="0 0 500.000000 500.000000"
 preserveAspectRatio="xMidYMid meet">

<g transform="translate(0.000000,500.000000) scale(0.100000,-0.100000)"
fill="#000000" stroke="none">
<path d="M2030 3646 c-13 -8 -74 -71 -135 -142 -60 -70 -130 -142 -155 -159
-25 -17 -58 -49 -73 -71 -68 -95 -298 -447 -294 -450 5 -5 174 229 256 356 65
98 98 140 113 140 5 0 2 -13 -7 -30 -9 -16 -14 -30 -12 -30 2 0 45 51 96 113
154 189 193 231 225 249 59 32 71 26 117 -63 53 -101 72 -125 149 -180 35 -26
84 -76 117 -119 l56 -75 -43 40 c-40 37 -42 38 -21 8 19 -28 19 -32 5 -35 -13
-2 -7 -17 31 -73 l47 -70 -46 50 c-25 28 -48 59 -52 70 -3 11 -20 53 -36 92
-27 66 -34 75 -74 92 -38 17 -54 35 -112 125 -37 58 -72 106 -79 106 -7 0 -17
-19 -24 -42 -6 -24 -24 -67 -41 -96 -29 -51 -40 -102 -54 -242 -4 -49 -2 -45
20 39 14 52 27 95 29 97 2 2 14 -19 27 -46 13 -28 30 -56 37 -62 20 -16 16
-49 -13 -112 -25 -55 -37 -66 -49 -46 -10 17 -32 11 -63 -15 l-30 -25 -28 25
c-36 34 -63 32 -118 -10 -53 -41 -59 -52 -16 -30 38 20 69 19 92 -2 18 -16 16
-20 -54 -90 l-73 -74 60 30 c33 17 71 31 85 31 14 0 47 -16 73 -36 l49 -36
-21 -22 c-27 -28 -18 -37 28 -30 27 4 66 -4 144 -30 108 -35 109 -35 170 -21
90 21 210 8 471 -51 60 -14 115 -23 123 -20 9 4 -21 46 -96 133 l-110 127 32
23 c37 28 38 28 31 6 -4 -12 3 -8 20 10 26 28 43 36 30 15 -4 -7 2 -4 14 6 15
13 22 15 22 6 0 -9 7 -8 23 6 35 30 65 45 72 34 8 -13 35 -1 35 17 0 19 -48
66 -63 60 -21 -8 -14 55 12 98 l23 40 -23 -20 c-19 -17 -18 -12 11 41 49 90
112 177 141 193 15 8 36 11 51 8 25 -7 58 -71 156 -299 11 -25 39 -67 62 -92
46 -50 45 -58 -2 -24 -20 13 -43 49 -65 97 -19 42 -41 80 -49 84 -8 4 -14 21
-14 36 0 60 -65 171 -99 171 -14 0 -22 -13 -31 -47 -7 -27 -15 -42 -18 -34 -3
9 -10 2 -18 -18 -8 -18 -18 -30 -23 -26 -10 5 -57 -133 -48 -141 2 -3 12 10
21 28 l17 33 -5 -55 -5 -55 17 47 17 48 34 -95 33 -96 -28 -40 c-17 -26 -38
-42 -56 -46 -15 -3 -28 -7 -28 -10 0 -2 11 -19 25 -37 14 -18 25 -36 25 -39 0
-3 -11 -23 -25 -43 -16 -24 -25 -51 -25 -76 l0 -40 78 9 c114 12 304 7 414
-11 54 -9 102 -16 108 -16 17 0 11 22 -21 85 l-32 60 28 -25 28 -25 -28 45
c-40 64 -171 237 -220 291 -23 25 -48 63 -55 85 -20 62 -110 257 -127 277 -19
20 -77 22 -111 4 -27 -15 -109 -133 -160 -232 -34 -65 -37 -68 -40 -40 -1 17
4 76 11 133 7 56 10 102 5 102 -4 0 -8 -7 -8 -16 0 -36 -52 -51 -84 -25 -12
10 -12 16 1 42 15 30 15 32 -16 60 -34 30 -72 38 -88 17 -12 -17 -31 -80 -43
-143 -8 -43 -7 -52 9 -66 24 -20 35 -114 22 -199 -7 -53 -6 -67 5 -76 12 -10
10 -12 -10 -16 -13 -3 -30 -1 -38 3 -8 4 -61 68 -118 141 -119 150 -164 198
-235 248 -40 28 -61 55 -105 135 -55 99 -56 100 -95 102 -22 2 -51 -3 -65 -11z
m839 -385 c-7 -56 -16 -101 -20 -101 -18 0 -20 25 -4 66 19 51 16 59 -31 74
-46 16 -43 44 6 48 19 2 39 8 44 13 17 16 17 3 5 -100z m-66 -17 c3 -4 -1 -23
-9 -42 -14 -35 -14 -37 8 -54 18 -13 21 -19 11 -29 -7 -7 -13 -19 -13 -26 0
-41 -60 -63 -74 -28 -5 13 26 154 39 174 7 12 28 15 38 5z m-506 -56 c-3 -8
-6 -5 -6 6 -1 11 2 17 5 13 3 -3 4 -12 1 -19z m953 -54 c0 -8 -4 -12 -10 -9
-5 3 -10 10 -10 16 0 5 5 9 10 9 6 0 10 -7 10 -16z m-490 -143 c0 -8 -43 -41
-54 -41 -2 0 -7 7 -10 15 -4 10 2 19 17 25 29 12 47 12 47 1z m-550 -141 c0
-5 -2 -10 -4 -10 -3 0 -8 5 -11 10 -3 6 -1 10 4 10 6 0 11 -4 11 -10z m977
-32 c-3 -8 -6 -5 -6 6 -1 11 2 17 5 13 3 -3 4 -12 1 -19z"/>
<path d="M1964 3518 c-62 -65 -134 -153 -134 -164 0 -4 17 8 38 27 20 18 31
27 25 19 -7 -7 -13 -19 -13 -24 1 -6 24 14 53 44 29 31 47 49 41 40 -25 -35
-26 -43 0 -20 15 13 24 30 21 38 -3 8 0 21 6 28 16 20 0 17 -25 -3 l-21 -18
20 25 c63 76 58 80 -11 8z"/>
<path d="M1578 3073 c-51 -65 -101 -130 -111 -145 -9 -16 -25 -40 -34 -55
l-17 -28 22 19 c12 11 22 15 22 11 0 -5 14 4 32 21 17 16 28 22 24 14 -4 -8
13 8 39 35 26 28 39 37 29 22 -9 -15 -14 -30 -12 -33 8 -8 39 46 33 56 -4 6 2
22 13 38 34 49 36 57 7 32 -28 -24 -27 -23 6 25 49 70 54 80 41 71 -16 -9 -15
7 0 22 7 7 9 12 6 12 -3 0 -48 -53 -100 -117z m42 18 c-57 -67 -61 -65 -9 4
23 31 44 53 46 51 3 -3 -14 -28 -37 -55z"/>
<path d="M1790 2535 l0 -105 65 0 65 0 0 -445 0 -445 110 0 110 0 0 445 0 445
125 0 125 0 0 -445 0 -445 110 0 110 0 0 445 0 445 125 0 125 0 0 -445 0 -445
110 0 110 0 0 445 0 445 65 0 65 0 0 105 0 105 -710 0 -710 0 0 -105z"/>
</g>
</svg>
