<?xml version="1.0" standalone="no"?>
<!DOCTYPE svg PUBLIC "-//W3C//DTD SVG 20010904//EN"
 "http://www.w3.org/TR/2001/REC-SVG-20010904/DTD/svg10.dtd">
<svg version="1.0" xmlns="http://www.w3.org/2000/svg"
 width="300.000000pt" height="300.000000pt" viewBox="0 0 300.000000 300.000000"
 preserveAspectRatio="xMidYMid meet">
<metadata>
Created by potrace 1.10, written by Peter Selinger 2001-2011
</metadata>
<g transform="translate(0.000000,300.000000) scale(0.050000,-0.050000)"
fill="#000000" stroke="none">
<path d="M2450 4381 c-22 -9 -106 -94 -187 -188 -80 -94 -163 -177 -184 -183
-34 -11 -419 -567 -419 -604 0 -9 9 -2 20 14 10 17 28 31 39 33 12 1 29 3 39
5 11 1 48 27 85 57 36 30 57 42 48 27 -12 -19 -10 -24 6 -14 13 8 23 30 23 49
0 19 8 44 18 54 34 35 43 155 10 128 -46 -39 -33 -5 45 111 63 95 133 156 97
85 -7 -14 15 7 49 45 34 39 79 70 99 70 20 0 51 12 69 27 18 16 33 21 33 13 0
-8 12 -5 27 8 23 18 30 78 15 122 -2 6 -39 -30 -83 -80 -43 -49 -79 -83 -79
-75 0 27 144 175 161 165 9 -6 23 0 31 13 9 14 6 18 -9 9 -43 -27 -23 25 21
57 82 57 125 40 175 -67 30 -63 95 -142 181 -219 114 -102 134 -130 128 -177
-3 -31 9 -78 27 -106 28 -44 28 -47 1 -24 -18 14 -52 79 -76 145 -32 83 -60
127 -97 144 -28 14 -91 81 -139 150 -85 122 -124 153 -124 98 0 -15 -21 -67
-47 -115 -25 -48 -52 -142 -59 -208 -12 -119 -8 -117 39 29 6 19 26 1 58 -53
53 -89 19 -253 -48 -230 -15 5 -49 -3 -75 -17 -38 -20 -54 -21 -72 -3 -35 35
-93 29 -151 -16 -56 -44 -51 -49 22 -21 105 40 114 -34 15 -122 -95 -84 -97
-93 -9 -47 107 56 269 -5 209 -78 -24 -28 -20 -32 33 -32 33 0 99 -14 147 -32
60 -22 168 -34 338 -37 178 -3 301 -17 428 -48 222 -55 223 -55 74 118 -122
142 -141 189 -74 189 18 0 40 10 48 21 8 11 28 20 44 19 17 -1 51 14 76 33 26
19 59 30 75 24 42 -16 36 46 -7 77 -56 40 -70 75 -43 107 14 17 19 35 13 42
-15 15 116 226 170 272 54 47 90 44 118 -10 19 -37 18 -41 -4 -20 -36 34 -78
31 -78 -6 0 -17 -22 -53 -48 -79 -46 -46 -56 -67 -83 -175 -9 -36 -7 -39 9
-15 18 25 22 21 24 -20 l2 -50 15 50 c15 47 16 48 31 10 9 -22 28 -71 43 -108
31 -77 -3 -158 -74 -176 -34 -9 -35 -14 -6 -58 29 -44 29 -52 -2 -99 -61 -93
-36 -140 69 -129 129 14 426 3 525 -19 98 -22 128 -3 95 58 -12 24 -26 62 -31
85 -8 44 -136 223 -239 336 -35 39 -79 111 -97 160 -154 410 -252 421 -455 55
l-57 -105 -2 80 c-1 44 -6 70 -11 58 -13 -30 -108 -10 -108 22 0 32 116 51
128 21 5 -11 9 15 8 59 0 44 -5 64 -10 45 -5 -22 -28 -35 -60 -35 -44 0 -49 6
-38 51 9 33 3 61 -17 81 -33 33 -121 31 -121 -2 0 -11 -6 -29 -13 -40 -30 -50
-39 -176 -14 -192 18 -11 27 -68 29 -177 3 -216 -24 -213 -215 28 -83 103
-189 218 -237 255 -52 39 -114 116 -155 191 -69 126 -92 140 -175 106z m903
-540 c-6 -32 -2 -61 9 -65 33 -11 -16 -116 -54 -116 -33 0 -31 166 2 220 27
43 55 18 43 -39z"/>
<path d="M2154 3167 c-8 -8 -14 -66 -14 -130 l0 -117 80 0 80 0 0 -541 0 -541
135 6 135 6 5 535 6 535 139 0 139 0 6 -535 5 -535 130 0 130 0 5 535 6 535
139 0 139 0 6 -535 5 -535 130 0 130 0 5 535 6 535 80 0 81 0 -6 125 -6 125
-841 5 c-463 3 -848 -1 -855 -8z"/>
</g>
</svg>
